<mxfile host="app.diagrams.net" modified="2023-09-22T16:57:30.009Z" agent="Mozilla/5.0 (X11; Linux x86_64) AppleWebKit/537.36 (KHTML, like Gecko) Chrome/117.0.0.0 Safari/537.36" etag="Mf3LLSMO2znw7K274dF8" version="21.8.0" type="github">
  <diagram name="Page-1" id="cQSMZOdaGjakXPMoXrA6">
    <mxGraphModel dx="3290" dy="1371" grid="1" gridSize="10" guides="1" tooltips="1" connect="1" arrows="1" fold="1" page="1" pageScale="1" pageWidth="850" pageHeight="1100" math="0" shadow="0">
      <root>
        <mxCell id="0" />
        <mxCell id="1" parent="0" />
        <mxCell id="MekAlx0tApYiTAJFCrwZ-8" style="edgeStyle=orthogonalEdgeStyle;rounded=0;orthogonalLoop=1;jettySize=auto;html=1;exitX=1;exitY=0.5;exitDx=0;exitDy=0;" parent="1" source="MekAlx0tApYiTAJFCrwZ-1" target="MekAlx0tApYiTAJFCrwZ-2" edge="1">
          <mxGeometry relative="1" as="geometry" />
        </mxCell>
        <mxCell id="MekAlx0tApYiTAJFCrwZ-1" value="&lt;font style=&quot;font-size: 16px;&quot;&gt;Poor Performance:&lt;br&gt;&lt;br&gt;&lt;/font&gt;What is needed for troubleshooting?&lt;br&gt;&lt;br&gt;&lt;div style=&quot;text-align: left;&quot;&gt;&lt;span style=&quot;background-color: initial;&quot;&gt;- IP address and WiFi MAC address&lt;/span&gt;&lt;/div&gt;&lt;div style=&quot;text-align: left;&quot;&gt;&lt;span style=&quot;background-color: initial;&quot;&gt;&lt;br&gt;&lt;/span&gt;&lt;/div&gt;&lt;div style=&quot;text-align: left;&quot;&gt;&lt;span style=&quot;background-color: initial;&quot;&gt;- User ID&lt;/span&gt;&lt;/div&gt;&lt;div style=&quot;text-align: left;&quot;&gt;&lt;span style=&quot;background-color: initial;&quot;&gt;&lt;br&gt;&lt;/span&gt;&lt;/div&gt;&lt;div style=&quot;text-align: left;&quot;&gt;&lt;span style=&quot;background-color: initial;&quot;&gt;- Date time of issue and room / area&lt;/span&gt;&lt;/div&gt;&lt;div style=&quot;text-align: left;&quot;&gt;&lt;span style=&quot;background-color: initial;&quot;&gt;&lt;br&gt;&lt;/span&gt;&lt;/div&gt;&lt;div style=&quot;text-align: left;&quot;&gt;&lt;span style=&quot;background-color: initial;&quot;&gt;- Destination URL or Call?&lt;/span&gt;&lt;/div&gt;" style="whiteSpace=wrap;html=1;aspect=fixed;fillColor=#d5e8d4;strokeColor=#82b366;" parent="1" vertex="1">
          <mxGeometry x="30" y="30" width="259" height="259" as="geometry" />
        </mxCell>
        <mxCell id="MekAlx0tApYiTAJFCrwZ-10" style="edgeStyle=orthogonalEdgeStyle;rounded=0;orthogonalLoop=1;jettySize=auto;html=1;exitX=0.5;exitY=1;exitDx=0;exitDy=0;entryX=0.467;entryY=-0.005;entryDx=0;entryDy=0;entryPerimeter=0;" parent="1" source="MekAlx0tApYiTAJFCrwZ-2" target="MekAlx0tApYiTAJFCrwZ-3" edge="1">
          <mxGeometry relative="1" as="geometry">
            <mxPoint x="370" y="480" as="targetPoint" />
          </mxGeometry>
        </mxCell>
        <mxCell id="MekAlx0tApYiTAJFCrwZ-2" value="&lt;font style=&quot;font-size: 16px;&quot;&gt;Where to start? &lt;br&gt;&lt;/font&gt;&lt;br&gt;&lt;div style=&quot;text-align: left;&quot;&gt;&lt;span style=&quot;background-color: initial;&quot;&gt;- CLI or GUI?&lt;/span&gt;&lt;/div&gt;&lt;div style=&quot;text-align: left;&quot;&gt;&lt;span style=&quot;background-color: initial;&quot;&gt;&lt;br&gt;&lt;/span&gt;&lt;/div&gt;&lt;div style=&quot;text-align: left;&quot;&gt;&lt;span style=&quot;background-color: initial;&quot;&gt;- What commands to run?&amp;nbsp; What to look for? Health, S/N&lt;/span&gt;&lt;/div&gt;&lt;div style=&quot;text-align: left;&quot;&gt;&lt;span style=&quot;background-color: initial;&quot;&gt;&lt;br&gt;&lt;/span&gt;&lt;/div&gt;&lt;div style=&quot;text-align: left;&quot;&gt;&lt;span style=&quot;background-color: initial;&quot;&gt;- Is the user connecting to 2.4, 5 or 6?&amp;nbsp;&lt;/span&gt;&lt;/div&gt;&lt;div style=&quot;text-align: left;&quot;&gt;&lt;br&gt;&lt;/div&gt;&lt;div style=&quot;text-align: left;&quot;&gt;&lt;span style=&quot;background-color: initial;&quot;&gt;- What is good?&amp;nbsp; What is great, good and bad look like?&lt;/span&gt;&lt;/div&gt;&lt;div style=&quot;text-align: left;&quot;&gt;&lt;br&gt;&lt;/div&gt;&lt;div style=&quot;text-align: left;&quot;&gt;&lt;span style=&quot;background-color: initial;&quot;&gt;- What to look for in the &#39;path&#39; of the packets: AP to Destination&lt;/span&gt;&lt;/div&gt;&lt;div style=&quot;text-align: left;&quot;&gt;&lt;span style=&quot;background-color: initial;&quot;&gt;&lt;br&gt;&lt;/span&gt;&lt;/div&gt;&lt;div style=&quot;text-align: left;&quot;&gt;&lt;span style=&quot;background-color: initial;&quot;&gt;- Where does the user sit in relation to the AP?&lt;/span&gt;&lt;/div&gt;&lt;div style=&quot;text-align: left;&quot;&gt;&lt;span style=&quot;background-color: initial;&quot;&gt;&lt;br&gt;&lt;/span&gt;&lt;/div&gt;&lt;div style=&quot;text-align: left;&quot;&gt;&lt;span style=&quot;background-color: initial;&quot;&gt;- Is the AP over subscribed?&lt;/span&gt;&lt;/div&gt;&lt;div style=&quot;text-align: left;&quot;&gt;&lt;span style=&quot;background-color: initial;&quot;&gt;&lt;br&gt;&lt;/span&gt;&lt;/div&gt;&lt;div style=&quot;text-align: left;&quot;&gt;&lt;span style=&quot;background-color: initial;&quot;&gt;- Is there a Cape sensor that we can compare&amp;nbsp; performance?&lt;/span&gt;&lt;/div&gt;&lt;div style=&quot;text-align: left;&quot;&gt;&lt;span style=&quot;background-color: initial;&quot;&gt;&lt;br&gt;&lt;/span&gt;&lt;/div&gt;&lt;div style=&quot;text-align: left;&quot;&gt;&lt;span style=&quot;background-color: initial;&quot;&gt;- Is the user roaming?&lt;/span&gt;&lt;/div&gt;" style="whiteSpace=wrap;html=1;aspect=fixed;fillColor=#f8cecc;strokeColor=#b85450;" parent="1" vertex="1">
          <mxGeometry x="430" y="30" width="380" height="380" as="geometry" />
        </mxCell>
        <mxCell id="MekAlx0tApYiTAJFCrwZ-3" value="Now that we have identified possible causes, how to fix?" style="whiteSpace=wrap;html=1;aspect=fixed;fillColor=#e1d5e7;strokeColor=#9673a6;" parent="1" vertex="1">
          <mxGeometry x="980" y="200" width="390" height="390" as="geometry" />
        </mxCell>
        <mxCell id="Bwl99SugZf0QZCcyl1GP-1" value="&lt;div&gt;Vishal: As per my suggestion once there is a wireless issue for the user. Ticket should be sent to CSD team to run below commands from CMD admin mode -&lt;/div&gt;&lt;div&gt;&lt;br&gt;&lt;/div&gt;&lt;div&gt;netsh winsock reset&lt;/div&gt;&lt;div&gt;netsh int ip reset&lt;/div&gt;&lt;div&gt;ipconfig /release&lt;/div&gt;&lt;div&gt;ipconfig /renew&lt;/div&gt;&lt;div&gt;ipconfig /flushdns&lt;/div&gt;&lt;div&gt;&lt;br&gt;&lt;/div&gt;&lt;div&gt;CSD team must check for the wireless drivers for any new updates and update drivers if needed.&lt;/div&gt;&lt;div&gt;&lt;br&gt;&lt;/div&gt;&lt;div&gt;&amp;gt; If user says issue is with browsing or surfing then CSD must check the different browsers and troubleshoot the browsers accordingly&amp;nbsp;&lt;/div&gt;&lt;div&gt;&lt;br&gt;&lt;/div&gt;&lt;div&gt;&amp;gt; clearing cache, history or resetting the browser if needed&lt;/div&gt;&lt;div&gt;&lt;br&gt;&lt;/div&gt;&lt;div&gt;&amp;gt; If issue is for loading a specific site then check for the compatibility in different browsers and not to be consider as network issue if only for one user&lt;/div&gt;&lt;div&gt;&lt;br&gt;&lt;/div&gt;&lt;div&gt;Once above is checked and issue is not fixed below information is needed to check further&lt;/div&gt;&lt;div&gt;&lt;br&gt;&lt;/div&gt;&lt;div&gt;Ipconfig /all&lt;/div&gt;&lt;div&gt;traceroute from source to destination&amp;nbsp;&lt;/div&gt;&lt;div&gt;ping result&amp;nbsp;&lt;/div&gt;&lt;div&gt;error screenshot if any&amp;nbsp;&lt;/div&gt;&lt;div&gt;&lt;br&gt;&lt;/div&gt;&lt;div&gt;-----------------------------------------------&lt;/div&gt;&lt;div&gt;&lt;br&gt;&lt;/div&gt;&lt;div&gt;&amp;gt; We need to identify if user is facing issue on SAP-Corporate or guest network&amp;nbsp;&lt;/div&gt;&lt;div&gt;&amp;gt; If possible check the performance over another network like hotspot if that is stable&amp;nbsp;&lt;/div&gt;&lt;div&gt;&lt;br&gt;&lt;/div&gt;&lt;div&gt;&amp;gt; Check for the user connectivity in airwave if he is connected to 2.4 GHz or 5 GHz&lt;/div&gt;&lt;div&gt;&amp;gt; Check for the roaming issue in airwave if user is getting connected to multiple AP&#39;s while on the same position&lt;/div&gt;&lt;div&gt;&amp;gt; Check SNR value for the user machine (&amp;gt;=50)&lt;/div&gt;&lt;div&gt;&lt;br&gt;&lt;/div&gt;&lt;div&gt;&amp;gt; We can check for the authentication issues in CPPM for user if its a guest network issue&amp;nbsp;&lt;/div&gt;&lt;div&gt;&amp;gt; Identify how many users are facing the issue if in office&lt;/div&gt;&lt;div&gt;&lt;br&gt;&lt;/div&gt;&lt;div&gt;&amp;gt; Check if user has network issue for specific application (MS teams call, while downloading big files)&lt;/div&gt;&lt;div&gt;&lt;br&gt;&lt;/div&gt;&lt;div&gt;&amp;gt; If multiple users are having low signal speed then increase the AP signal strength / power (There is some option to do so in airwave not sure how :p)&lt;/div&gt;&lt;div&gt;&lt;br&gt;&lt;/div&gt;" style="whiteSpace=wrap;html=1;aspect=fixed;fillColor=#ffe6cc;strokeColor=#d79b00;" parent="1" vertex="1">
          <mxGeometry x="-520" y="340" width="770" height="770" as="geometry" />
        </mxCell>
        <mxCell id="Bwl99SugZf0QZCcyl1GP-2" value="Ionel -&amp;nbsp;- CSD needs to investigate the issue first, No matter what. They need to update the drivers, reset network card, flush DNS, etc.&lt;div&gt;&lt;br&gt;&lt;/div&gt;&lt;div&gt;- Service desk needs to check the overall network health:&amp;nbsp;&lt;/div&gt;&lt;div&gt;&amp;nbsp; &amp;nbsp; &amp;nbsp; &amp;nbsp; &amp;nbsp; &amp;nbsp; &amp;nbsp; &amp;nbsp; *Is there any LAN device down?&lt;/div&gt;&lt;div&gt;&amp;nbsp; &amp;nbsp; &amp;nbsp; &amp;nbsp; &amp;nbsp; &amp;nbsp; &amp;nbsp; &amp;nbsp; *Is there any issue with the WAN connectivity?&lt;/div&gt;&lt;div&gt;&amp;nbsp; &amp;nbsp; &amp;nbsp; &amp;nbsp; &amp;nbsp; &amp;nbsp; &amp;nbsp; &amp;nbsp; *Gather any relevant info and at least the output of ipconfig&lt;/div&gt;&lt;div&gt;&lt;br&gt;&lt;/div&gt;&lt;div&gt;- We need to understand what issue the user has(can be done by SD but limited to them):&lt;/div&gt;&lt;div&gt;&amp;nbsp; &amp;nbsp; &amp;nbsp; &amp;nbsp; &amp;nbsp; &amp;nbsp; &amp;nbsp; &amp;nbsp; *What application is affected? Is network unusable at all or just certain applications/browser?&lt;/div&gt;&lt;div&gt;&amp;nbsp; &amp;nbsp; &amp;nbsp; &amp;nbsp; &amp;nbsp; &amp;nbsp; &amp;nbsp; &amp;nbsp;*Low speed? user must provide speed test result&lt;/div&gt;&lt;div&gt;&amp;nbsp; &amp;nbsp; &amp;nbsp; &amp;nbsp; &amp;nbsp; &amp;nbsp; &amp;nbsp; &amp;nbsp; *Unable to reach a certain destination? User must provide the error received(picture is more than a thousand words)&lt;/div&gt;&lt;div&gt;&amp;nbsp; &amp;nbsp; &amp;nbsp; &amp;nbsp; &amp;nbsp; &amp;nbsp; &amp;nbsp; &amp;nbsp; *Is the issue present all the time? If not, then when?&lt;/div&gt;&lt;div&gt;&lt;br&gt;&lt;/div&gt;&lt;div&gt;- Troubleshooting(steps order may vary depending on the issue):&lt;/div&gt;&lt;div&gt;&amp;nbsp; &amp;nbsp; &amp;nbsp; &amp;nbsp; &amp;nbsp; &amp;nbsp; &amp;nbsp; &amp;nbsp; *Is the user having authentication issues? Check CPPM(GUI), search for Authentication failures&lt;/div&gt;&lt;div&gt;&amp;nbsp; &amp;nbsp; &amp;nbsp; &amp;nbsp; &amp;nbsp; &amp;nbsp; &amp;nbsp; &amp;nbsp; *Is the user using 2.4Ghz or 5Ghz? This can be seen in Airwave(GUI) under device detail&lt;/div&gt;&lt;div&gt;&amp;nbsp; &amp;nbsp; &amp;nbsp; &amp;nbsp; &amp;nbsp; &amp;nbsp; &amp;nbsp; &amp;nbsp; *Is Fast Roaming(krv) enabled on the user device? This can be seen in Airwave(GUI) under device detail&lt;/div&gt;&lt;div&gt;&amp;nbsp; &amp;nbsp; &amp;nbsp; &amp;nbsp; &amp;nbsp; &amp;nbsp; &amp;nbsp; &amp;nbsp; *Is the Wi-Fi signal covering the area where the user is? Can be seen in Airwave(GUI) - Visual RF&lt;/div&gt;&lt;div&gt;&amp;nbsp; &amp;nbsp; &amp;nbsp; &amp;nbsp; &amp;nbsp; &amp;nbsp; &amp;nbsp; &amp;nbsp; *If the signal is slightly covering the area, check with Local IT to see if something is blocking the signal(eg: Metal Whiteboard)&lt;/div&gt;&lt;div&gt;&amp;nbsp; &amp;nbsp; &amp;nbsp; &amp;nbsp; &amp;nbsp; &amp;nbsp; &amp;nbsp; &amp;nbsp; *Is the user getting &quot;sticky client&quot; errors? Could be that the AP density is too high. AP power should be adjusted or AP number&amp;nbsp; &amp;nbsp; reduced&lt;/div&gt;&lt;div&gt;&lt;br&gt;&lt;/div&gt;&lt;div&gt;- After finding the AP where the user connects:&lt;/div&gt;&lt;div&gt;&amp;nbsp; &amp;nbsp; &amp;nbsp; &amp;nbsp; &amp;nbsp; &amp;nbsp; &amp;nbsp; &amp;nbsp; *Is the AP rebooting? Check in MCR(CLI). Possible reasons for rebooting:&lt;/div&gt;&lt;div&gt;&amp;nbsp; &amp;nbsp; &amp;nbsp; &amp;nbsp; &amp;nbsp; &amp;nbsp; &amp;nbsp; &amp;nbsp; &amp;nbsp; &amp;nbsp; &amp;nbsp; &amp;nbsp; &amp;nbsp; &amp;nbsp; &amp;nbsp; &amp;nbsp; - AP uplink has errors and tunnel towards WLC is not forming. Since the AP does not get to the WLC it reboots&lt;/div&gt;&lt;div&gt;&amp;nbsp; &amp;nbsp; &amp;nbsp; &amp;nbsp; &amp;nbsp; &amp;nbsp; &amp;nbsp; &amp;nbsp; &amp;nbsp; &amp;nbsp; &amp;nbsp; &amp;nbsp; &amp;nbsp; &amp;nbsp; &amp;nbsp; &amp;nbsp; - POE issues&lt;/div&gt;&lt;div&gt;&amp;nbsp; &amp;nbsp; &amp;nbsp; &amp;nbsp; &amp;nbsp; &amp;nbsp; &amp;nbsp; &amp;nbsp; &amp;nbsp; &amp;nbsp; &amp;nbsp; &amp;nbsp; &amp;nbsp; &amp;nbsp; &amp;nbsp; &amp;nbsp; - Other connectivity issues between WLC and AP&lt;/div&gt;&lt;div&gt;&amp;nbsp; &amp;nbsp; &amp;nbsp; &amp;nbsp; &amp;nbsp; &amp;nbsp; &amp;nbsp; &amp;nbsp; &amp;nbsp; &amp;nbsp; &amp;nbsp; &amp;nbsp; &amp;nbsp; &amp;nbsp; &amp;nbsp; &amp;nbsp; - AP software or hardware issues(rarely)&lt;/div&gt;&lt;div&gt;&amp;nbsp; &amp;nbsp; &amp;nbsp; &amp;nbsp; &amp;nbsp; &amp;nbsp; &amp;nbsp; &amp;nbsp; *Check the uplink of the AP for cabling issues(TDR test)&lt;/div&gt;&lt;div&gt;&amp;nbsp; &amp;nbsp; &amp;nbsp; &amp;nbsp; &amp;nbsp; &amp;nbsp; &amp;nbsp; &amp;nbsp; *Check the uplink port of the AP for CRC errors or output drops.&lt;/div&gt;&lt;div&gt;&lt;br&gt;&lt;/div&gt;" style="whiteSpace=wrap;html=1;aspect=fixed;fillColor=#ffe6cc;strokeColor=#d79b00;" parent="1" vertex="1">
          <mxGeometry x="310" y="500" width="630" height="630" as="geometry" />
        </mxCell>
        <mxCell id="IrNqu5AW_3v1xc4edvsI-1" value="email notes from Harald&lt;br&gt;&lt;div&gt;I know that there has been upfront sync on troubleshooting steps for WDF18 agreed and are ongoing.&lt;/div&gt;&lt;div&gt;&lt;br&gt;&lt;/div&gt;&lt;div&gt;On top I would like to point out that there are a lot of band steers in the Airwave logs for affected clients.&lt;/div&gt;&lt;div&gt;&lt;br&gt;&lt;/div&gt;&lt;div&gt;Band steer means that a client is on 2.4 GHz where he usually should not be as Clients prefer 5 GHz.&lt;/div&gt;&lt;div&gt;The controller tries to steer back the affected client to 5 GHz has he sees that user experience would be much better in 5 GHz.&lt;/div&gt;&lt;div&gt;&lt;br&gt;&lt;/div&gt;&lt;div&gt;To me odds are high that we solve the some of the existing issues if clients stay in 5 GHz.&lt;/div&gt;&lt;div&gt;&lt;br&gt;&lt;/div&gt;&lt;div&gt;You should focus on understanding why some clients in WDF18 (or maybe globally) opt to use 2.4 GHz.&lt;/div&gt;&lt;div&gt;-&lt;span style=&quot;white-space: pre;&quot;&gt;&amp;nbsp;&amp;nbsp;&amp;nbsp;&amp;nbsp;&lt;/span&gt;Client driver issue (is the latest driver in use)&lt;/div&gt;&lt;div&gt;-&lt;span style=&quot;&quot;&gt;&lt;span style=&quot;white-space: pre;&quot;&gt;&amp;nbsp;&amp;nbsp;&amp;nbsp;&amp;nbsp;&lt;/span&gt;&lt;/span&gt;Low AP power levels on 5 GHz&amp;nbsp;&lt;/div&gt;&lt;div&gt;-&lt;span style=&quot;&quot;&gt;&lt;span style=&quot;white-space: pre;&quot;&gt;&amp;nbsp;&amp;nbsp;&amp;nbsp;&amp;nbsp;&lt;/span&gt;&lt;/span&gt;High Power levels on 2.4 GHz (due to the Aruba/Qualcomm Bug that will be fixed with 8.10.0.8)&lt;/div&gt;&lt;div&gt;-&lt;span style=&quot;&quot;&gt;&lt;span style=&quot;white-space: pre;&quot;&gt;&amp;nbsp;&amp;nbsp;&amp;nbsp;&amp;nbsp;&lt;/span&gt;&lt;/span&gt;High noise floor, co-channel interference, channel utilization on 5 GHz&lt;/div&gt;&lt;div&gt;-&lt;span style=&quot;&quot;&gt;&lt;span style=&quot;white-space: pre;&quot;&gt;&amp;nbsp;&amp;nbsp;&amp;nbsp;&amp;nbsp;&lt;/span&gt;&lt;/span&gt;Client Software issues that makes the device driver roam to another band, assuming that existing channel is bad but in fact a client software has issues (global protect, umbrella, …)&lt;/div&gt;&lt;div&gt;-&lt;span style=&quot;&quot;&gt;&lt;span style=&quot;white-space: pre;&quot;&gt;&amp;nbsp;&amp;nbsp;&amp;nbsp;&amp;nbsp;&lt;/span&gt;&lt;/span&gt;Bad wireless coverage on 5 GHz (APs missing in a special area)&lt;/div&gt;&lt;div&gt;-&lt;span style=&quot;&quot;&gt;&lt;span style=&quot;white-space: pre;&quot;&gt;&amp;nbsp;&amp;nbsp;&amp;nbsp;&amp;nbsp;&lt;/span&gt;&lt;/span&gt;…&lt;/div&gt;&lt;div&gt;&lt;br&gt;&lt;/div&gt;" style="whiteSpace=wrap;html=1;aspect=fixed;fillColor=#ffe6cc;strokeColor=#d79b00;" vertex="1" parent="1">
          <mxGeometry x="1030" y="650" width="490" height="490" as="geometry" />
        </mxCell>
      </root>
    </mxGraphModel>
  </diagram>
</mxfile>
